<?xml version="1.0" encoding="UTF-8" standalone="no"?>
<!DOCTYPE svg PUBLIC "-//W3C//DTD SVG 1.1//EN" "http://www.w3.org/Graphics/SVG/1.1/DTD/svg11.dtd">
<svg width="100%" height="100%" viewBox="0 0 120 120" version="1.1" xmlns="http://www.w3.org/2000/svg" xmlns:xlink="http://www.w3.org/1999/xlink" xml:space="preserve" xmlns:serif="http://www.serif.com/" style="fill-rule:evenodd;clip-rule:evenodd;stroke-linejoin:round;stroke-miterlimit:2;">
    <g transform="matrix(1,0,0,1,0,5.60956)">
        <g transform="matrix(1.22134,0.704229,-0.704229,1.22134,19.1547,-56.6506)">
            <path d="M59.484,13.307C62.551,11.536 66.33,11.536 69.397,13.307C76.579,17.453 89.801,25.087 96.988,29.236C100.06,31.01 101.953,34.289 101.953,37.837L101.953,69.683C101.953,73.232 100.059,76.512 96.986,78.286C89.808,82.431 76.61,90.05 69.423,94.2C66.34,95.98 62.541,95.98 59.458,94.2C52.276,90.053 39.092,82.442 31.911,78.295C28.828,76.515 26.928,73.225 26.928,69.665L26.928,37.827C26.928,34.285 28.818,31.012 31.886,29.241C39.07,25.093 52.3,17.455 59.484,13.307Z" style="fill:rgb(0,136,153);"/>
        </g>
        <g transform="matrix(1.54059,3.77336e-16,-3.77336e-16,1.54059,-34.2359,-30.8961)">
            <g transform="matrix(0.397696,0,0,0.397696,37.2874,30.7433)">
                <path d="M11.121,50.247L22.285,16.991C22.285,16.991 23.74,9.783 33.809,9.567C43.878,9.35 86.751,9.214 86.751,9.214C86.751,9.214 96.128,7.917 98.478,18.065C100.829,28.214 108.867,50.159 108.867,50.159L11.121,50.247" style="fill:rgb(255,166,0);"/>
            </g>
            <g transform="matrix(0.397696,0,0,0.397696,40.1896,25.5572)">
                <path d="M23.104,49.751L82.814,49.499L82.758,37.799C82.758,37.799 82.751,33.468 77.066,33.575C71.381,33.682 29.025,33.295 29.025,33.295C29.025,33.295 23.077,32.25 23.161,38.329C23.244,44.407 23.104,49.751 23.104,49.751Z" style="fill:rgb(224,224,224);"/>
            </g>
            <g transform="matrix(0.397696,0,0,0.397696,37.0531,31.0765)">
                <path d="M23.104,49.751L97.814,49.499L97.758,37.799C97.758,37.799 97.751,33.468 92.066,33.575C86.381,33.682 29.025,33.295 29.025,33.295C29.025,33.295 23.077,32.25 23.161,38.329C23.244,44.407 23.104,49.751 23.104,49.751Z" style="fill:white;"/>
            </g>
            <g transform="matrix(0.397696,1.2326e-32,-1.2326e-32,0.397696,37.2639,30.6571)">
                <path d="M109.059,50.247L11.121,50.247L11.121,94.972C11.121,94.972 9.884,105.461 21.611,105.461L99.101,105.461C99.101,105.461 109.127,106.96 109.127,95.435C109.127,83.91 109.059,50.247 109.059,50.247Z" style="fill:rgb(255,198,0);"/>
            </g>
        </g>
    </g>
</svg>
